<?xml version="1.0" encoding="utf-8"?>
<!-- Generator: Adobe Illustrator 18.1.1, SVG Export Plug-In . SVG Version: 6.00 Build 0)  -->
<!DOCTYPE svg PUBLIC "-//W3C//DTD SVG 1.1//EN" "http://www.w3.org/Graphics/SVG/1.1/DTD/svg11.dtd">
<svg version="1.1" id="レイヤー_1" xmlns="http://www.w3.org/2000/svg" xmlns:xlink="http://www.w3.org/1999/xlink" x="0px"
	 y="0px" viewBox="0 0 128 128" enable-background="new 0 0 128 128" xml:space="preserve">
<g>
	<g>
		<path fill="#F08300" d="M112,10c3.3,0,6,2.7,6,6v96c0,3.3-2.7,6-6,6H16c-3.3,0-6-2.7-6-6V16c0-3.3,2.7-6,6-6H112 M112,8H16
			c-4.4,0-8,3.6-8,8v96c0,4.4,3.6,8,8,8h96c4.4,0,8-3.6,8-8V16C120,11.6,116.4,8,112,8L112,8z"/>
	</g>
	<g>
		<polygon fill="#F08300" points="111.9,68.1 93.8,68.1 93.8,75.5 77.8,75.5 77.8,82.8 61.8,82.8 61.8,90.2 45.7,90.2 45.7,97.5 
			29.7,97.5 29.7,104.9 16.1,104.9 16.1,113.7 38.5,113.7 38.5,106.3 54.6,106.3 54.6,99 70.6,99 70.6,91.6 86.6,91.6 86.6,84.3 
			102.6,84.3 102.6,76.9 111.9,76.9 		"/>
		<path fill="#F08300" d="M59.3,63.9c-2.8,6.2-8.9,10.4-16,10.4c-9.6,0-17.5-7.8-17.5-17.5c0-6.9,4.1-12.9,10-15.8l0.3,4
			c-4,2.4-6.7,6.8-6.7,11.8c0,7.6,6.2,13.9,13.9,13.9c7.1,0,12.9-5.3,13.8-12L59.3,63.9z M40.5,29.2l1,11.3l0,0H53v3.6H41.8l0.3,3.4
			h16.1l0,0l7.3,17.2l6.2-2.6L73,65l-9.2,4l-7.6-17.9H38.8l-2.1-24.3c-0.3-0.6-0.5-1.3-0.5-2c0-2.4,1.9-4.4,4.3-4.4
			c2.4,0,4.4,2,4.4,4.4C44.9,27.2,43,29.2,40.5,29.2z"/>
	</g>
</g>
</svg>
