<?xml version="1.0" encoding="utf-8"?>
<!-- Generator: Adobe Illustrator 18.1.1, SVG Export Plug-In . SVG Version: 6.00 Build 0)  -->
<!DOCTYPE svg PUBLIC "-//W3C//DTD SVG 1.1//EN" "http://www.w3.org/Graphics/SVG/1.1/DTD/svg11.dtd">
<svg version="1.1" id="レイヤー_1" xmlns="http://www.w3.org/2000/svg" xmlns:xlink="http://www.w3.org/1999/xlink" x="0px"
	 y="0px" viewBox="0 0 128 128" enable-background="new 0 0 128 128" xml:space="preserve">
<g>
	<g>
		<path d="M112,10c3.3,0,6,2.7,6,6v96c0,3.3-2.7,6-6,6H16c-3.3,0-6-2.7-6-6V16c0-3.3,2.7-6,6-6H112 M112,8H16c-4.4,0-8,3.6-8,8v96
			c0,4.4,3.6,8,8,8h96c4.4,0,8-3.6,8-8V16C120,11.6,116.4,8,112,8L112,8z"/>
	</g>
	<g>
		<path d="M78.3,83.1c-4.3,9.6-14,16.3-25.1,16.3c-15.1,0-27.4-12.2-27.4-27.4c0-10.9,6.4-20.2,15.6-24.7l0.5,6.2
			C35.7,57.3,31.5,64.1,31.5,72c0,11.9,9.8,21.7,21.7,21.7c11.1,0,20.2-8.3,21.6-18.9L78.3,83.1z M48.9,28.8l1.6,17.6l0,0h17.9v5.7
			H50.9l0.5,5.3h25.2l0,0l11.4,26.9l9.6-4.1l2,4.6l-14.4,6.2l-11.9-28H46.2l-3.3-38c-0.5-1-0.8-2-0.8-3.1c0-3.8,3-6.9,6.8-6.9
			c3.8,0,6.9,3.1,6.9,6.9C55.8,25.7,52.7,28.8,48.9,28.8z"/>
		<polygon points="15.3,112.9 112.7,112.9 112.7,91.1 		"/>
	</g>
</g>
</svg>
