<?xml version="1.0" encoding="utf-8"?>
<!-- Generator: Adobe Illustrator 18.1.1, SVG Export Plug-In . SVG Version: 6.00 Build 0)  -->
<!DOCTYPE svg PUBLIC "-//W3C//DTD SVG 1.1//EN" "http://www.w3.org/Graphics/SVG/1.1/DTD/svg11.dtd">
<svg version="1.1" id="レイヤー_1" xmlns="http://www.w3.org/2000/svg" xmlns:xlink="http://www.w3.org/1999/xlink" x="0px"
	 y="0px" viewBox="0 0 128 128" enable-background="new 0 0 128 128" xml:space="preserve">
<g>
	<path fill="#040000" d="M120,109H8l8-16h96L120,109z M70.9,105L64,93l-6.9,12H70.9z"/>
	<g>
		<path fill="#040000" d="M112,91H16V19h96V91z M106,63V41c0-0.5-0.4-1-1-1H83c-0.5,0-1,0.5-1,1v22c0,0.5,0.5,1,1,1h22
			C105.6,64,106,63.5,106,63z M46,63V41c0-0.5-0.5-1-1-1H23c-0.6,0-1,0.5-1,1v22c0,0.5,0.4,1,1,1h22C45.5,64,46,63.5,46,63z M77,85
			V37c0-0.5-0.4-1-1-1H52c-0.5,0-1,0.5-1,1v48c0,0.6,0.5,1,1,1h24C76.6,86,77,85.6,77,85z"/>
		<g>
			<path fill="#040000" d="M63.5,85H53c-0.5,0-1-0.4-1-1V38c0-0.5,0.5-1,1-1h10.5V85z M61,63.1V40.9c0-0.5-0.4-0.9-0.9-0.9h-4.3
				c-0.5,0-0.9,0.4-0.9,0.9v22.3c0,0.5,0.4,0.9,0.9,0.9h4.3C60.6,64,61,63.6,61,63.1z"/>
			<path fill="#040000" d="M75,85H64.5V37H75c0.6,0,1,0.5,1,1v46C76,84.6,75.6,85,75,85z M73,63.1V40.9c0-0.5-0.4-0.9-0.9-0.9h-4.3
				c-0.5,0-0.9,0.4-0.9,0.9v22.3c0,0.5,0.4,0.9,0.9,0.9h4.3C72.6,64,73,63.6,73,63.1z"/>
		</g>
	</g>
</g>
</svg>
