<?xml version="1.0" encoding="utf-8"?>
<!-- Generator: Adobe Illustrator 18.1.1, SVG Export Plug-In . SVG Version: 6.00 Build 0)  -->
<!DOCTYPE svg PUBLIC "-//W3C//DTD SVG 1.1//EN" "http://www.w3.org/Graphics/SVG/1.1/DTD/svg11.dtd">
<svg version="1.1" id="レイヤー_1" xmlns="http://www.w3.org/2000/svg" xmlns:xlink="http://www.w3.org/1999/xlink" x="0px"
	 y="0px" viewBox="0 0 128 128" enable-background="new 0 0 128 128" xml:space="preserve">
<g>
	<g>
		<path fill="#1E50A2" d="M112,120H16c-4.4,0-8-3.6-8-8V16c0-4.4,3.6-8,8-8h96c4.4,0,8,3.6,8,8v96C120,116.4,116.4,120,112,120z"/>
	</g>
	<g>
		<g>
			<path fill="#FFFFFF" d="M100.4,38.7c-2.9-0.5-5.8-0.8-8.8-0.8c-3,0-6,0.3-8.8,0.8c-4.8,0.9-8.2,5.2-7.9,10L76,69h4.8V49.6h1.5v54
				h6.5L91,70.2h1.2l2.3,33.5h6.5v-54h1.5V69h4.8l1.1-20.3C108.5,43.9,105.2,39.6,100.4,38.7z"/>
			<circle fill="#FFFFFF" cx="91.6" cy="30.3" r="5.9"/>
		</g>
		<rect x="61.4" y="24.9" fill="#FFFFFF" width="5.6" height="78.7"/>
		<g>
			<path fill="#FFFFFF" d="M49.4,65.5h4.4l-3.5-20.1c-0.5-3.1-2.9-5.7-6.1-6.5c-2.4-0.6-4.8-0.9-7.4-0.9c-2.5,0-5,0.3-7.4,0.9
				c-3.2,0.8-5.6,3.5-6.1,6.5l-3.5,20.1h4.4l4.6-17l1.8,6.8c-4.2,6.3-6.7,13.8-6.7,21.9h7.6l2.3,26.4h5.9L42,77.2h7.6
				c0-8.1-2.5-15.6-6.7-21.9l1.8-6.8L49.4,65.5z"/>
			<circle fill="#FFFFFF" cx="36.7" cy="30.3" r="5.9"/>
		</g>
	</g>
</g>
</svg>
