<?xml version="1.0" encoding="utf-8"?>
<!-- Generator: Adobe Illustrator 18.1.1, SVG Export Plug-In . SVG Version: 6.00 Build 0)  -->
<!DOCTYPE svg PUBLIC "-//W3C//DTD SVG 1.1//EN" "http://www.w3.org/Graphics/SVG/1.1/DTD/svg11.dtd">
<svg version="1.1" id="レイヤー_1" xmlns="http://www.w3.org/2000/svg" xmlns:xlink="http://www.w3.org/1999/xlink" x="0px"
	 y="0px" viewBox="0 0 128 128" enable-background="new 0 0 128 128" xml:space="preserve">
<g>
	<g>
		<path d="M52,70c3.3,0,6,2.7,6,6v40c0,3.3-2.7,6-6,6H12c-3.3,0-6-2.7-6-6V76c0-3.3,2.7-6,6-6H52 M52,68H12c-4.4,0-8,3.6-8,8v40
			c0,4.4,3.6,8,8,8h40c4.4,0,8-3.6,8-8V76C60,71.6,56.4,68,52,68L52,68z"/>
	</g>
	<g>
		<g>
			<path d="M50.2,83.3c-1.4-0.3-2.9-0.4-4.4-0.4c-1.5,0-3,0.1-4.4,0.4c-2.4,0.4-4.1,2.6-3.9,5L38,98.5h2.4v-9.7h0.7v27h3.2l1.2-16.7
				h0.6l1.2,16.7h3.2v-27h0.7v9.7h2.4l0.5-10.1C54.3,86,52.6,83.8,50.2,83.3z"/>
			<circle cx="45.8" cy="79.1" r="2.9"/>
		</g>
		<rect x="30.7" y="76.5" width="2.8" height="39.3"/>
		<g>
			<path d="M24.7,96.7h2.2l-1.8-10.1c-0.3-1.5-1.4-2.9-3.1-3.3c-1.2-0.3-2.4-0.5-3.7-0.5c-1.3,0-2.5,0.2-3.7,0.5
				c-1.6,0.4-2.8,1.7-3.1,3.3L9.8,96.7H12l2.3-8.5l0.9,3.4c-2.1,3.1-3.3,6.9-3.3,11h3.8l1.2,13.2h3l1.2-13.2h3.8
				c0-4.1-1.2-7.8-3.3-11l0.9-3.4L24.7,96.7z"/>
			<circle cx="18.4" cy="79.1" r="2.9"/>
		</g>
	</g>
</g>
<g>
	<g>
		<path d="M116,70c3.3,0,6,2.7,6,6v40c0,3.3-2.7,6-6,6H76c-3.3,0-6-2.7-6-6V76c0-3.3,2.7-6,6-6H116 M116,68H76c-4.4,0-8,3.6-8,8v40
			c0,4.4,3.6,8,8,8h40c4.4,0,8-3.6,8-8V76C124,71.6,120.4,68,116,68L116,68z"/>
	</g>
	<path d="M104,109.4c-2.2,5-7.2,8.4-13,8.4c-7.8,0-14.2-6.3-14.2-14.2c0-5.6,3.3-10.4,8.1-12.8l0.3,3.2c-3.2,2-5.4,5.5-5.4,9.5
		c0,6.2,5,11.2,11.2,11.2c5.7,0,10.4-4.3,11.1-9.7L104,109.4z M88.8,81.3l0.8,9.1l0,0h9.3v2.9h-9l0.3,2.7h13l0,0l5.9,13.9l5-2.1
		l1.1,2.4l-7.4,3.2L101.5,99H87.4l-1.7-19.6c-0.3-0.5-0.4-1.1-0.4-1.6c0-2,1.5-3.6,3.5-3.6c2,0,3.6,1.6,3.6,3.6
		C92.4,79.7,90.8,81.3,88.8,81.3z"/>
</g>
<g>
	<g>
		<path d="M52,6c3.3,0,6,2.7,6,6v40c0,3.3-2.7,6-6,6H12c-3.3,0-6-2.7-6-6V12c0-3.3,2.7-6,6-6H52 M52,4H12c-4.4,0-8,3.6-8,8v40
			c0,4.4,3.6,8,8,8h40c4.4,0,8-3.6,8-8V12C60,7.6,56.4,4,52,4L52,4z"/>
	</g>
	<g>
		<circle cx="28.3" cy="16" r="2.3"/>
		<path d="M54.5,24c0,3.2-2.7,5.7-5.9,5.7h-4.1L24.2,49.8l-9,0c-3.2,0-5.8-2.4-5.8-5.7c0-3.2,2.5-5.8,5.8-5.8h4.1l6.3-6.3l-1.3-10.3
			c0-0.1,0-0.2,0-0.3c0-1.2,0.9-2.1,2-2.3C27,19,27.6,19,28.3,19c0.6,0,1.3,0.1,1.9,0.1c1.1,0.2,2,1.1,2,2.3c0,0.1,0,0.2,0,0.3
			l-0.6,4.5l8.1-8l8.9,0C51.9,18.2,54.5,20.7,54.5,24z M15.3,41.1c-0.8,0-1.6,0.3-2.1,0.9c-0.6,0.6-0.9,1.3-0.9,2.1
			c0,0.8,0.3,1.5,0.8,2c0.6,0.6,1.3,0.9,2.2,0.9l7.8,0l20.2-20.2h5.3c1.8,0,3.1-1.2,3.1-2.9c0-0.8-0.3-1.5-0.9-2.1
			c-0.6-0.6-1.4-0.9-2.3-0.9l-7.8,0L20.5,41.1H15.3z"/>
	</g>
</g>
<g>
	<g>
		<path d="M116,6c3.3,0,6,2.7,6,6v40c0,3.3-2.7,6-6,6H76c-3.3,0-6-2.7-6-6V12c0-3.3,2.7-6,6-6H116 M116,4H76c-4.4,0-8,3.6-8,8v40
			c0,4.4,3.6,8,8,8h40c4.4,0,8-3.6,8-8V12C124,7.6,120.4,4,116,4L116,4z"/>
	</g>
	<g>
		<path d="M81.3,26.4v29.2h29.3V26.4H81.3z M107.9,52.8H84.1V29.2h23.7V52.8z"/>
		<polygon points="95.1,18.1 95.1,14.8 89.8,20.1 89.8,8.8 87.1,8.8 87.1,20.1 81.8,14.8 81.8,18.1 88.4,24.8 		"/>
		<polygon points="102.3,13.1 102.3,24.4 105,24.4 105,13.1 110.3,18.4 110.3,15.1 103.6,8.4 97,15.1 97,18.4 		"/>
		<path d="M85.7,43.8h0.9v7.6h1.5l0.5-7.6h0.3l0.5,7.6h1.5v-7.6h0.9l0.3-5.1c0.1-1-0.7-2-1.7-2.1c-0.5-0.1-1.1-0.1-1.6-0.1
			c-0.5,0-1.1,0-1.6,0.1c-1,0.2-1.8,1.1-1.7,2.1L85.7,43.8z"/>
		<circle cx="88.8" cy="34.7" r="1.3"/>
		<path d="M93,43.8h0.9v7.6h1.5l0.5-7.6h0.3l0.5,7.6h1.5v-7.6h0.9l0.3-5.1c0.1-1-0.7-2-1.7-2.1c-0.5-0.1-1.1-0.1-1.6-0.1
			c-0.5,0-1.1,0-1.6,0.1c-1,0.2-1.8,1.1-1.7,2.1L93,43.8z"/>
		<circle cx="96.1" cy="34.7" r="1.3"/>
		<path d="M100.4,43.8h0.9v7.6h1.5l0.5-7.6h0.3l0.5,7.6h1.5v-7.6h0.9l0.3-5.1c0.1-1-0.7-2-1.7-2.1c-0.5-0.1-1.1-0.1-1.6-0.1
			c-0.5,0-1.1,0-1.6,0.1c-1,0.2-1.8,1.1-1.7,2.1L100.4,43.8z"/>
		<circle cx="103.4" cy="34.7" r="1.3"/>
	</g>
</g>
</svg>
