<?xml version="1.0" encoding="utf-8"?>
<!-- Generator: Adobe Illustrator 18.1.1, SVG Export Plug-In . SVG Version: 6.00 Build 0)  -->
<!DOCTYPE svg PUBLIC "-//W3C//DTD SVG 1.1//EN" "http://www.w3.org/Graphics/SVG/1.1/DTD/svg11.dtd">
<svg version="1.1" id="レイヤー_1" xmlns="http://www.w3.org/2000/svg" xmlns:xlink="http://www.w3.org/1999/xlink" x="0px"
	 y="0px" viewBox="0 0 128 128" enable-background="new 0 0 128 128" xml:space="preserve">
<g>
	<g>
		<path fill="#6C2C2F" d="M112,120H16c-4.4,0-8-3.6-8-8V16c0-4.4,3.6-8,8-8h96c4.4,0,8,3.6,8,8v96C120,116.4,116.4,120,112,120z"/>
	</g>
	<g>
		<path fill="#FFFFFF" d="M34.7,52.8v58.4h58.6V52.8H34.7z M87.7,105.5H40.3V58.4h47.4V105.5z"/>
		<polygon fill="#FFFFFF" points="62.2,36.2 62.2,29.6 51.5,40.2 51.5,17.6 46.2,17.6 46.2,40.2 35.5,29.6 35.5,36.2 48.9,49.6 		
			"/>
		<polygon fill="#FFFFFF" points="76.6,26.2 76.6,48.9 81.9,48.9 81.9,26.2 92.6,36.9 92.6,30.2 79.2,16.9 65.9,30.2 65.9,36.9 		
			"/>
		<path fill="#FFFFFF" d="M43.4,87.7h1.8v15.1h2.9l1.1-15.1h0.5l1.1,15.1h2.9V87.7h1.8l0.5-10.1c0.1-2.1-1.3-3.9-3.4-4.2
			c-1-0.2-2.1-0.2-3.2-0.2c-1.1,0-2.2,0.1-3.2,0.2c-2.1,0.3-3.5,2.2-3.4,4.2L43.4,87.7z"/>
		<circle fill="#FFFFFF" cx="49.5" cy="69.3" r="2.7"/>
		<path fill="#FFFFFF" d="M58.1,87.7h1.8v15.1h2.9l1.1-15.1h0.5l1.1,15.1h2.9V87.7h1.8l0.5-10.1c0.1-2.1-1.3-3.9-3.4-4.2
			c-1-0.2-2.1-0.2-3.2-0.2c-1.1,0-2.2,0.1-3.2,0.2c-2.1,0.3-3.5,2.2-3.4,4.2L58.1,87.7z"/>
		<circle fill="#FFFFFF" cx="64.1" cy="69.3" r="2.7"/>
		<path fill="#FFFFFF" d="M72.7,87.7h1.8v15.1h2.9l1.1-15.1H79l1.1,15.1H83V87.7h1.8l0.5-10.1c0.1-2.1-1.3-3.9-3.4-4.2
			c-1-0.2-2.1-0.2-3.2-0.2c-1.1,0-2.2,0.1-3.2,0.2c-2.1,0.3-3.5,2.2-3.4,4.2L72.7,87.7z"/>
		<circle fill="#FFFFFF" cx="78.8" cy="69.3" r="2.7"/>
	</g>
</g>
</svg>
