<?xml version="1.0" encoding="utf-8"?>
<!-- Generator: Adobe Illustrator 18.1.1, SVG Export Plug-In . SVG Version: 6.00 Build 0)  -->
<!DOCTYPE svg PUBLIC "-//W3C//DTD SVG 1.1//EN" "http://www.w3.org/Graphics/SVG/1.1/DTD/svg11.dtd">
<svg version="1.1" id="レイヤー_1" xmlns="http://www.w3.org/2000/svg" xmlns:xlink="http://www.w3.org/1999/xlink" x="0px"
	 y="0px" viewBox="0 0 128 128" enable-background="new 0 0 128 128" xml:space="preserve">
<g>
	<g>
		<path fill="#E95295" d="M112,120H16c-4.4,0-8-3.6-8-8V16c0-4.4,3.6-8,8-8h96c4.4,0,8,3.6,8,8v96C120,116.4,116.4,120,112,120z"/>
	</g>
	<g>
		<polygon fill="#FFFFFF" points="33.2,100.4 28.8,96 43.1,96 27.9,80.8 31.5,77.2 46.6,92.4 46.6,78.1 51.1,82.6 51.1,100.4 		"/>
		<g>
			<circle fill="#FFFFFF" cx="71.4" cy="32.1" r="4.5"/>
			<path fill="#FFFFFF" d="M30.8,36.3l17.8,0l16.2,16.1l-1.1-9c0-0.2,0-0.4,0-0.6c0-2.3,1.7-4.3,4-4.6c1.2-0.2,2.5-0.3,3.8-0.3
				c1.3,0,2.5,0.1,3.8,0.3c2.3,0.3,4,2.3,4,4.6c0,0.2,0,0.4,0,0.6l-2.6,20.6l12.7,12.6h8.2c6.5,0,11.6,5.1,11.6,11.6
				c0,6.5-5.1,11.3-11.6,11.3l-18,0L39,59.2h-8.3c-6.5,0-11.8-4.8-11.8-11.3C18.9,41.4,24.3,36.3,30.8,36.3z M87,82.3L46.3,41.9
				l-15.5,0c-1.7,0-3.3,0.7-4.5,1.8c-1.1,1.1-1.7,2.6-1.7,4.1c0,3.3,2.7,5.7,6.2,5.7h10.6L81.8,94l15.7,0c1.7,0,3.3-0.6,4.4-1.7
				c1-1,1.6-2.4,1.6-4c0-1.6-0.6-3.2-1.7-4.3c-1.1-1.1-2.6-1.7-4.3-1.7H87z"/>
		</g>
	</g>
</g>
</svg>
