<?xml version="1.0" encoding="utf-8"?>
<!-- Generator: Adobe Illustrator 18.1.1, SVG Export Plug-In . SVG Version: 6.00 Build 0)  -->
<!DOCTYPE svg PUBLIC "-//W3C//DTD SVG 1.1//EN" "http://www.w3.org/Graphics/SVG/1.1/DTD/svg11.dtd">
<svg version="1.1" id="レイヤー_1" xmlns="http://www.w3.org/2000/svg" xmlns:xlink="http://www.w3.org/1999/xlink" x="0px"
	 y="0px" viewBox="0 0 128 128" enable-background="new 0 0 128 128" xml:space="preserve">
<g>
	<g>
		<path d="M112,10c3.3,0,6,2.7,6,6v96c0,3.3-2.7,6-6,6H16c-3.3,0-6-2.7-6-6V16c0-3.3,2.7-6,6-6H112 M112,8H16c-4.4,0-8,3.6-8,8v96
			c0,4.4,3.6,8,8,8h96c4.4,0,8-3.6,8-8V16C120,11.6,116.4,8,112,8L112,8z"/>
	</g>
	<g>
		<circle cx="56.6" cy="32.1" r="4.5"/>
		<path d="M109.1,47.9c0,6.5-5.3,11.3-11.8,11.3H89L48.5,99.6l-18,0c-6.5,0-11.6-4.8-11.6-11.3c0-6.5,5.1-11.6,11.6-11.6h8.2
			l12.7-12.6l-2.6-20.6c0-0.2,0-0.4,0-0.6c0-2.3,1.7-4.3,4-4.6c1.2-0.2,2.5-0.3,3.8-0.3c1.3,0,2.5,0.1,3.8,0.3c2.3,0.3,4,2.3,4,4.6
			c0,0.2,0,0.4,0,0.6l-1.1,9l16.2-16.1l17.8,0C103.7,36.3,109.1,41.4,109.1,47.9z M30.5,82.3c-1.6,0-3.2,0.6-4.3,1.7
			c-1.1,1.1-1.7,2.6-1.7,4.3c0,1.6,0.6,3,1.6,4c1.1,1.1,2.7,1.7,4.4,1.7l15.7,0l40.5-40.3h10.6c3.6,0,6.2-2.5,6.2-5.7
			c0-1.6-0.6-3-1.7-4.1c-1.2-1.2-2.8-1.8-4.5-1.8l-15.5,0L41,82.3H30.5z"/>
	</g>
</g>
</svg>
