<?xml version="1.0" encoding="utf-8"?>
<!-- Generator: Adobe Illustrator 18.1.1, SVG Export Plug-In . SVG Version: 6.00 Build 0)  -->
<!DOCTYPE svg PUBLIC "-//W3C//DTD SVG 1.1//EN" "http://www.w3.org/Graphics/SVG/1.1/DTD/svg11.dtd">
<svg version="1.1" id="レイヤー_1" xmlns="http://www.w3.org/2000/svg" xmlns:xlink="http://www.w3.org/1999/xlink" x="0px"
	 y="0px" viewBox="0 0 128 128" enable-background="new 0 0 128 128" xml:space="preserve">
<g>
	<g>
		<path fill="#D7003A" d="M112,10c3.3,0,6,2.7,6,6v96c0,3.3-2.7,6-6,6H16c-3.3,0-6-2.7-6-6V16c0-3.3,2.7-6,6-6H112 M112,8H16
			c-4.4,0-8,3.6-8,8v96c0,4.4,3.6,8,8,8h96c4.4,0,8-3.6,8-8V16C120,11.6,116.4,8,112,8L112,8z"/>
	</g>
	<g>
		<polygon fill="#D7003A" points="82.3,77.2 77.8,81.7 92.1,81.7 76.9,96.9 80.5,100.4 95.6,85.3 95.6,99.5 100.1,95.1 100.1,77.2 
					"/>
		<g>
			<path fill="#D7003A" d="M109.1,47.9c0,6.5-5.3,11.3-11.8,11.3H89L48.5,99.6l-18,0c-6.5,0-11.6-4.8-11.6-11.3
				c0-6.5,5.1-11.6,11.6-11.6h8.2l40.6-40.4l17.8,0C103.7,36.3,109.1,41.4,109.1,47.9z M30.5,82.3c-1.6,0-3.2,0.6-4.3,1.7
				c-1.1,1.1-1.7,2.6-1.7,4.3c0,1.6,0.6,3,1.6,4c1.1,1.1,2.7,1.7,4.4,1.7l15.7,0l40.5-40.3h10.6c3.6,0,6.2-2.5,6.2-5.7
				c0-1.6-0.6-3-1.7-4.1c-1.2-1.2-2.8-1.8-4.5-1.8l-15.5,0L41,82.3H30.5z"/>
			<path fill="#D7003A" d="M46.5,47.3c-1.7,3.8-5.5,6.4-9.9,6.4c-5.9,0-10.8-4.8-10.8-10.8c0-4.3,2.5-8,6.2-9.7l0.2,2.5
				c-2.5,1.5-4.1,4.2-4.1,7.3c0,4.7,3.9,8.6,8.6,8.6c4.4,0,8-3.3,8.5-7.4L46.5,47.3z M34.9,25.9l0.6,7l0,0h7.1v2.2h-6.9l0.2,2.1h10
				l0,0l4.5,10.6l3.8-1.6L55,48l-5.7,2.5l-4.7-11H33.8l-1.3-15c-0.2-0.4-0.3-0.8-0.3-1.2c0-1.5,1.2-2.7,2.7-2.7
				c1.5,0,2.7,1.2,2.7,2.7C37.6,24.6,36.4,25.9,34.9,25.9z"/>
		</g>
	</g>
</g>
</svg>
