<?xml version="1.0" encoding="utf-8"?>
<!-- Generator: Adobe Illustrator 18.1.1, SVG Export Plug-In . SVG Version: 6.00 Build 0)  -->
<!DOCTYPE svg PUBLIC "-//W3C//DTD SVG 1.1//EN" "http://www.w3.org/Graphics/SVG/1.1/DTD/svg11.dtd">
<svg version="1.1" id="レイヤー_1" xmlns="http://www.w3.org/2000/svg" xmlns:xlink="http://www.w3.org/1999/xlink" x="0px"
	 y="0px" viewBox="0 0 128 128" enable-background="new 0 0 128 128" xml:space="preserve">
<g>
	<g>
		<path fill="#D7003A" d="M16,120h96c4.4,0,8-3.6,8-8V16c0-4.4-3.6-8-8-8H16c-4.4,0-8,3.6-8,8v96C8,116.4,11.6,120,16,120z"/>
	</g>
	<g>
		<polygon fill="#FFFFFF" points="33.2,100.4 28.8,96 43.1,96 27.9,80.8 31.5,77.2 46.6,92.4 46.6,78.1 51.1,82.6 51.1,100.4 		"/>
		<g>
			<path fill="#FFFFFF" d="M30.8,36.3l17.8,0l40.6,40.4h8.2c6.5,0,11.6,5.1,11.6,11.6c0,6.5-5.1,11.3-11.6,11.3l-18,0L39,59.2h-8.3
				c-6.5,0-11.8-4.8-11.8-11.3C18.9,41.4,24.3,36.3,30.8,36.3z M87,82.3L46.3,41.9l-15.5,0c-1.7,0-3.3,0.7-4.5,1.8
				c-1.1,1.1-1.7,2.6-1.7,4.1c0,3.3,2.7,5.7,6.2,5.7h10.6L81.8,94l15.7,0c1.7,0,3.3-0.6,4.4-1.7c1-1,1.6-2.4,1.6-4
				c0-1.6-0.6-3.2-1.7-4.3c-1.1-1.1-2.6-1.7-4.3-1.7H87z"/>
			<path fill="#FFFFFF" d="M93.7,47.3c-1.7,3.8-5.5,6.4-9.9,6.4c-5.9,0-10.8-4.8-10.8-10.8c0-4.3,2.5-8,6.2-9.7l0.2,2.5
				c-2.5,1.5-4.1,4.2-4.1,7.3c0,4.7,3.9,8.6,8.6,8.6c4.4,0,8-3.3,8.5-7.4L93.7,47.3z M82.1,25.9l0.6,7l0,0h7.1v2.2h-6.9l0.2,2.1h10
				l0,0l4.5,10.6l3.8-1.6l0.8,1.8l-5.7,2.5l-4.7-11H81.1l-1.3-15c-0.2-0.4-0.3-0.8-0.3-1.2c0-1.5,1.2-2.7,2.7-2.7
				c1.5,0,2.7,1.2,2.7,2.7C84.9,24.6,83.6,25.9,82.1,25.9z"/>
		</g>
	</g>
</g>
</svg>
