<?xml version="1.0" encoding="utf-8"?>
<!-- Generator: Adobe Illustrator 18.1.1, SVG Export Plug-In . SVG Version: 6.00 Build 0)  -->
<!DOCTYPE svg PUBLIC "-//W3C//DTD SVG 1.1//EN" "http://www.w3.org/Graphics/SVG/1.1/DTD/svg11.dtd">
<svg version="1.1" id="レイヤー_1" xmlns="http://www.w3.org/2000/svg" xmlns:xlink="http://www.w3.org/1999/xlink" x="0px"
	 y="0px" viewBox="0 0 128 128" enable-background="new 0 0 128 128" xml:space="preserve">
<g>
	<g>
		<path fill="#A69425" d="M112,10c3.3,0,6,2.7,6,6v96c0,3.3-2.7,6-6,6H16c-3.3,0-6-2.7-6-6V16c0-3.3,2.7-6,6-6H112 M112,8H16
			c-4.4,0-8,3.6-8,8v96c0,4.4,3.6,8,8,8h96c4.4,0,8-3.6,8-8V16C120,11.6,116.4,8,112,8L112,8z"/>
	</g>
	<g>
		<path fill="#A69425" d="M30.7,108.3h66.5V49.9H30.7V108.3z M89.8,100.9H38.2V57.4h51.6V100.9z"/>
		<path fill="#A69425" d="M56.2,69.4v-6l1.2-0.3c2.2-0.5,4.4-0.8,6.7-0.8c2.2,0,4.5,0.3,6.7,0.8l1.2,0.3l0,6l9.5,0
			c1.3,0,2.4,1.1,2.4,2.4l0,20c0,1.3-1.1,2.4-2.4,2.4l-34.8,0c-1.3,0-2.4-1.1-2.4-2.4l0-20c0-1.3,1.1-2.4,2.4-2.4L56.2,69.4z
			 M69.5,69.4c0,0,0-2.8,0-4.1c-1.8-0.4-3.7-0.6-5.5-0.6c-1.9,0-3.7,0.2-5.5,0.6l0,4.1L69.5,69.4z"/>
		<path fill="#A69425" d="M56.4,42.9L44.1,45c-0.3,0-0.5,0.1-0.8,0.1c-2.5,0-4.6-2.1-4.6-4.6V24.3c0-2.5,2.1-4.6,4.6-4.6
			c0.3,0,0.5,0,0.8,0.1l12.3,2.2v4.5h27.5l7.2,4.3v3.4l-7.2,4.3l-3.2-3.2l-3.2,3.2l-3.2-3.2l-3.2,3.2L68,35.2l-3.2,3.2h-8.5V42.9z
			 M43.3,35.2c0,1.1,0.9,2,2,2c1.1,0,2-0.9,2-2v-5.5c0-1.1-0.9-2-2-2c-1.1,0-2,0.9-2,2V35.2z"/>
	</g>
</g>
</svg>
