<?xml version="1.0" encoding="utf-8"?>
<!-- Generator: Adobe Illustrator 18.1.1, SVG Export Plug-In . SVG Version: 6.00 Build 0)  -->
<!DOCTYPE svg PUBLIC "-//W3C//DTD SVG 1.1//EN" "http://www.w3.org/Graphics/SVG/1.1/DTD/svg11.dtd">
<svg version="1.1" id="レイヤー_1" xmlns="http://www.w3.org/2000/svg" xmlns:xlink="http://www.w3.org/1999/xlink" x="0px"
	 y="0px" viewBox="0 0 128 128" enable-background="new 0 0 128 128" xml:space="preserve">
<g>
	<g>
		<path fill="#1E50A2" d="M112,120H16c-4.4,0-8-3.6-8-8V16c0-4.4,3.6-8,8-8h96c4.4,0,8,3.6,8,8v96C120,116.4,116.4,120,112,120z"/>
	</g>
	<g>
		<path fill="#FFFFFF" d="M88.9,105.9H39.1L37,65.4c-0.6-8.4,5.4-16,13.9-17.3c4.3-0.6,8.7-1,13.2-1c4.5,0,8.9,0.3,13.2,1
			C85.7,49.4,91.6,57,91,65.4L88.9,105.9z M75.4,86.7v-5.2h-5.2v5.2h-5.2V92h5.2v5.2h5.2V92h5.2v-5.2H75.4z"/>
		<path fill="#FFFFFF" d="M64,43.9c6,0,10.9-4.9,10.9-10.9c0-6-4.9-10.9-10.9-10.9c-6,0-10.9,4.9-10.9,10.9C53.1,39,58,43.9,64,43.9
			"/>
	</g>
</g>
</svg>
