<?xml version="1.0" encoding="utf-8"?>
<!-- Generator: Adobe Illustrator 18.1.1, SVG Export Plug-In . SVG Version: 6.00 Build 0)  -->
<!DOCTYPE svg PUBLIC "-//W3C//DTD SVG 1.1//EN" "http://www.w3.org/Graphics/SVG/1.1/DTD/svg11.dtd">
<svg version="1.1" id="レイヤー_1" xmlns="http://www.w3.org/2000/svg" xmlns:xlink="http://www.w3.org/1999/xlink" x="0px"
	 y="0px" viewBox="0 0 128 128" enable-background="new 0 0 128 128" xml:space="preserve">
<g>
	<g>
		<path fill="#928178" d="M112,120H16c-4.4,0-8-3.6-8-8V16c0-4.4,3.6-8,8-8h96c4.4,0,8,3.6,8,8v96C120,116.4,116.4,120,112,120z"/>
	</g>
	<g>
		<polygon fill="#FFFFFF" points="111.9,68.1 93.8,68.1 93.8,75.5 77.8,75.5 77.8,82.8 61.8,82.8 61.8,90.2 45.7,90.2 45.7,97.5 
			29.7,97.5 29.7,104.9 16.1,104.9 16.1,113.7 38.5,113.7 38.5,106.3 54.6,106.3 54.6,99 70.6,99 70.6,91.6 86.6,91.6 86.6,84.3 
			102.6,84.3 102.6,76.9 111.9,76.9 		"/>
		<g>
			<circle fill="#FFFFFF" cx="38.2" cy="33.6" r="4.8"/>
			<path fill="#FFFFFF" d="M55.9,80.7L43.3,70.2l2.6-18.4c2.8,3.3,4.6,7.4,5,11.9l4-1.1c-0.2-7.1-3.2-13.6-7.8-18.3
				c-3.2-3.2-7.3-4.3-10.2-4.6c0,0,0,0-0.1,0c-0.4,0-0.7,0.3-0.7,0.6c-1.4,7.7-6.1,14.3-12.6,18.2l2.1,3.6c3.5-1.5,6.5-3.6,9.1-6.3
				v39.3h5.2l2.3-16.4l12.8,7.4L55.9,80.7z"/>
		</g>
		<g>
			<circle fill="#FFFFFF" cx="81.3" cy="19" r="4.8"/>
			<path fill="#FFFFFF" d="M90.9,48.4L81.6,43l0.9-4.4c0.3-1.7,0.5-3.4,0.5-5.1c0-2.7-0.4-5.3-1.1-7.7c-0.1-0.3-0.4-0.5-0.7-0.5
				c0,0,0,0,0,0c-10.4,0.4-18.7,8.9-18.7,19.3c0,0.5,0,1,0.1,1.5l4.1,0.7c0-0.1,0-0.2,0-0.3c0-4.3,1.9-8.2,4.9-10.8l-2.3,44.6h5.2
				L79.9,52l5.1,2.4l-3.5,13.1l3.7,3.7l7.7-16.5c0.3-0.6,0.5-1.3,0.5-2C93.3,50.8,92.4,49.2,90.9,48.4z"/>
		</g>
	</g>
</g>
</svg>
