<?xml version="1.0" encoding="utf-8"?>
<!-- Generator: Adobe Illustrator 18.1.1, SVG Export Plug-In . SVG Version: 6.00 Build 0)  -->
<!DOCTYPE svg PUBLIC "-//W3C//DTD SVG 1.1//EN" "http://www.w3.org/Graphics/SVG/1.1/DTD/svg11.dtd">
<svg version="1.1" id="レイヤー_1" xmlns="http://www.w3.org/2000/svg" xmlns:xlink="http://www.w3.org/1999/xlink" x="0px"
	 y="0px" viewBox="0 0 192 128" enable-background="new 0 0 192 128" xml:space="preserve">
<g>
	<g>
		<path fill="#1E50A2" d="M176,120H16c-4.4,0-8-3.6-8-8V16c0-4.4,3.6-8,8-8h160c4.4,0,8,3.6,8,8v96C184,116.4,180.4,120,176,120z"/>
	</g>
	<g>
		<g>
			<g>
				<path fill="#FFFFFF" d="M166.3,37c3.9,0,7,3.1,7,7v40c0,3.9-3.1,7-7,7h-40c-3.9,0-7-3.1-7-7V44c0-3.9,3.1-7,7-7H166.3 M166.3,36
					h-40c-4.4,0-8,3.6-8,8v40c0,4.4,3.6,8,8,8h40c4.4,0,8-3.6,8-8V44C174.3,39.6,170.7,36,166.3,36L166.3,36z"/>
			</g>
			<g>
				<path fill="#FFFFFF" d="M152.5,69.8l-4.6,4.6l3.1,3.1l-3.8,4.2l2.6,2.6l5.2-4.4c1-0.8,1.6-2.1,1.6-3.5c0-1.1-0.4-2.2-1.1-3
					L152.5,69.8z"/>
				<path fill="#FFFFFF" d="M144.7,74.4l-4.6-4.6l-3.1,3.7c-0.7,0.8-1.1,1.8-1.1,3c0,1.4,0.6,2.7,1.6,3.5l5.2,4.4l2.6-2.6l-3.8-4.2
					L144.7,74.4z"/>
				<path fill="#FFFFFF" d="M154,58.5c-1.2-1.4-2.8-2.3-4.7-2.5c-1-0.1-2-0.2-3-0.2c-1,0-2,0.1-3,0.2c-1.9,0.2-3.6,1.1-4.7,2.5
					l-7.3,8.6l2.3,2.8l6.4-5.8v3.1h12.5v-3.1l6.4,5.8l2.3-2.8L154,58.5z"/>
				<circle fill="#FFFFFF" cx="146.3" cy="49.2" r="5.5"/>
			</g>
		</g>
		<g>
			<g>
				<path fill="#FFFFFF" d="M98.4,38.7c-2.9-0.5-5.8-0.8-8.8-0.8c-3,0-6,0.3-8.8,0.8c-4.8,0.9-8.2,5.2-7.9,10L74,69h4.8V49.6h1.5v54
					h6.5L89,70.2h1.2l2.3,33.5H99v-54h1.5V69h4.8l1.1-20.3C106.5,43.9,103.2,39.6,98.4,38.7z"/>
				<circle fill="#FFFFFF" cx="89.6" cy="30.3" r="5.9"/>
			</g>
			<rect x="59.4" y="24.9" fill="#FFFFFF" width="5.6" height="78.7"/>
			<g>
				<path fill="#FFFFFF" d="M47.4,65.5h4.4l-3.5-20.1c-0.5-3.1-2.9-5.7-6.1-6.5c-2.4-0.6-4.8-0.9-7.4-0.9c-2.5,0-5,0.3-7.4,0.9
					c-3.2,0.8-5.6,3.5-6.1,6.5l-3.5,20.1h4.4l4.6-17l1.8,6.8c-4.2,6.3-6.7,13.8-6.7,21.9h7.6l2.3,26.4h5.9L40,77.2h7.6
					c0-8.1-2.5-15.6-6.7-21.9l1.8-6.8L47.4,65.5z"/>
				<circle fill="#FFFFFF" cx="34.7" cy="30.3" r="5.9"/>
			</g>
		</g>
	</g>
</g>
</svg>
