<?xml version="1.0" encoding="utf-8"?>
<!-- Generator: Adobe Illustrator 18.1.1, SVG Export Plug-In . SVG Version: 6.00 Build 0)  -->
<!DOCTYPE svg PUBLIC "-//W3C//DTD SVG 1.1//EN" "http://www.w3.org/Graphics/SVG/1.1/DTD/svg11.dtd">
<svg version="1.1" id="レイヤー_1" xmlns="http://www.w3.org/2000/svg" xmlns:xlink="http://www.w3.org/1999/xlink" x="0px"
	 y="0px" viewBox="0 0 128 128" enable-background="new 0 0 128 128" xml:space="preserve">
<g>
	<g>
		<path fill="#2CA9E1" d="M112,120H16c-4.4,0-8-3.6-8-8V16c0-4.4,3.6-8,8-8h96c4.4,0,8,3.6,8,8v96C120,116.4,116.4,120,112,120z"/>
	</g>
	<path fill="#FFFFFF" d="M80.1,90.7c-4.5,10-14.4,16.8-25.9,16.8c-15.6,0-28.3-12.6-28.3-28.3c0-11.2,6.6-20.9,16.1-25.5l0.6,6.4
		C36,64.1,31.7,71.1,31.7,79.2c0,12.3,10.1,22.4,22.4,22.4c11.5,0,20.9-8.6,22.3-19.5L80.1,90.7z M49.6,34.6l1.7,18.2l0,0h18.5v5.9
		H51.7l0.6,5.5h26.1l0,0L90.1,92l10-4.2l2.1,4.8L87.3,99L75,70.1H46.8l-3.4-39.3c-0.6-1-0.8-2.1-0.8-3.2c0-3.9,3.1-7.1,7-7.1
		c3.9,0,7.2,3.2,7.2,7.1C56.8,31.4,53.6,34.6,49.6,34.6z"/>
</g>
</svg>
