<?xml version="1.0" encoding="utf-8"?>
<!-- Generator: Adobe Illustrator 18.1.1, SVG Export Plug-In . SVG Version: 6.00 Build 0)  -->
<!DOCTYPE svg PUBLIC "-//W3C//DTD SVG 1.1//EN" "http://www.w3.org/Graphics/SVG/1.1/DTD/svg11.dtd">
<svg version="1.1" id="レイヤー_1" xmlns="http://www.w3.org/2000/svg" xmlns:xlink="http://www.w3.org/1999/xlink" x="0px"
	 y="0px" viewBox="0 0 128 128" enable-background="new 0 0 128 128" xml:space="preserve">
<g>
	<g>
		<path fill="#E95295" d="M112,120H16c-4.4,0-8-3.6-8-8V16c0-4.4,3.6-8,8-8h96c4.4,0,8,3.6,8,8v96C120,116.4,116.4,120,112,120z"/>
	</g>
	<g>
		<g>
			<polygon fill="#FFFFFF" points="94.8,100.4 99.2,96 84.9,96 100.1,80.8 96.5,77.2 81.4,92.4 81.4,78.1 76.9,82.6 76.9,100.4 			
				"/>
			<polygon fill="#FFFFFF" points="90.7,68.7 86.3,73.2 100.6,73.2 85.4,88.4 89,91.9 104.1,76.8 104.1,91.1 108.6,86.6 108.6,68.7 
							"/>
		</g>
		<g>
			<circle fill="#FFFFFF" cx="56.6" cy="32.1" r="4.5"/>
			<path fill="#FFFFFF" d="M109.1,47.9c0,6.5-5.3,11.3-11.8,11.3H89L48.5,99.6l-18,0c-6.5,0-11.6-4.8-11.6-11.3
				c0-6.5,5.1-11.6,11.6-11.6h8.2l12.7-12.6l-2.6-20.6c0-0.2,0-0.4,0-0.6c0-2.3,1.7-4.3,4-4.6c1.2-0.2,2.5-0.3,3.8-0.3
				c1.3,0,2.5,0.1,3.8,0.3c2.3,0.3,4,2.3,4,4.6c0,0.2,0,0.4,0,0.6l-1.1,9l16.2-16.1l17.8,0C103.7,36.3,109.1,41.4,109.1,47.9z
				 M30.5,82.3c-1.6,0-3.2,0.6-4.3,1.7c-1.1,1.1-1.7,2.6-1.7,4.3c0,1.6,0.6,3,1.6,4c1.1,1.1,2.7,1.7,4.4,1.7l15.7,0l40.5-40.3h10.6
				c3.6,0,6.2-2.5,6.2-5.7c0-1.6-0.6-3-1.7-4.1c-1.2-1.2-2.8-1.8-4.5-1.8l-15.5,0L41,82.3H30.5z"/>
		</g>
	</g>
</g>
</svg>
