<?xml version="1.0" encoding="utf-8"?>
<!-- Generator: Adobe Illustrator 18.1.1, SVG Export Plug-In . SVG Version: 6.00 Build 0)  -->
<!DOCTYPE svg PUBLIC "-//W3C//DTD SVG 1.1//EN" "http://www.w3.org/Graphics/SVG/1.1/DTD/svg11.dtd">
<svg version="1.1" id="レイヤー_1" xmlns="http://www.w3.org/2000/svg" xmlns:xlink="http://www.w3.org/1999/xlink" x="0px"
	 y="0px" viewBox="0 0 256 128" enable-background="new 0 0 256 128" xml:space="preserve">
<g>
	<g>
		<path d="M240,10c3.3,0,6,2.7,6,6v96c0,3.3-2.7,6-6,6H16c-3.3,0-6-2.7-6-6V16c0-3.3,2.7-6,6-6H240 M240,8H16c-4.4,0-8,3.6-8,8v96
			c0,4.4,3.6,8,8,8h224c4.4,0,8-3.6,8-8V16C248,11.6,244.4,8,240,8L240,8z"/>
	</g>
	<g>
		<g>
			<g>
				<path d="M229.3,37c3.9,0,7,3.1,7,7v40c0,3.9-3.1,7-7,7h-40c-3.9,0-7-3.1-7-7V44c0-3.9,3.1-7,7-7H229.3 M229.3,36h-40
					c-4.4,0-8,3.6-8,8v40c0,4.4,3.6,8,8,8h40c4.4,0,8-3.6,8-8V44C237.3,39.6,233.7,36,229.3,36L229.3,36z"/>
			</g>
			<g>
				<path d="M221.8,82.9h-24.9l-1.1-20.2c-0.3-4.2,2.7-8,6.9-8.6c2.2-0.3,4.4-0.5,6.6-0.5c2.2,0,4.4,0.2,6.6,0.5
					c4.2,0.6,7.2,4.4,6.9,8.6L221.8,82.9z M215,73.4v-2.6h-2.6v2.6h-2.6V76h2.6v2.6h2.6V76h2.6v-2.6H215z"/>
				<path d="M209.3,51.9c3,0,5.4-2.4,5.4-5.4c0-3-2.4-5.4-5.4-5.4c-3,0-5.4,2.4-5.4,5.4C203.9,49.5,206.3,51.9,209.3,51.9"/>
			</g>
		</g>
		<g>
			<g>
				<path d="M167.3,37c3.9,0,7,3.1,7,7v40c0,3.9-3.1,7-7,7h-40c-3.9,0-7-3.1-7-7V44c0-3.9,3.1-7,7-7H167.3 M167.3,36h-40
					c-4.4,0-8,3.6-8,8v40c0,4.4,3.6,8,8,8h40c4.4,0,8-3.6,8-8V44C175.3,39.6,171.7,36,167.3,36L167.3,36z"/>
			</g>
			<path d="M155.3,77.4c-2.2,5-7.2,8.4-13,8.4c-7.8,0-14.2-6.3-14.2-14.2c0-5.6,3.3-10.4,8.1-12.8l0.3,3.2c-3.2,2-5.4,5.5-5.4,9.5
				c0,6.2,5,11.2,11.2,11.2c5.7,0,10.4-4.3,11.1-9.7L155.3,77.4z M140.1,49.3l0.8,9.1l0,0h9.3v2.9h-9l0.3,2.7h13l0,0l5.9,13.9l5-2.1
				l1.1,2.4l-7.4,3.2L152.8,67h-14.1L137,47.4c-0.3-0.5-0.4-1.1-0.4-1.6c0-2,1.5-3.6,3.5-3.6c2,0,3.6,1.6,3.6,3.6
				C143.7,47.7,142.1,49.3,140.1,49.3z"/>
		</g>
		<g>
			<g>
				<path d="M99.4,38.7c-2.9-0.5-5.8-0.8-8.8-0.8c-3,0-6,0.3-8.8,0.8c-4.8,0.9-8.2,5.2-7.9,10L75,69h4.8V49.6h1.5v54h6.5L90,70.2
					h1.2l2.3,33.5h6.5v-54h1.5V69h4.8l1.1-20.3C107.5,43.9,104.2,39.6,99.4,38.7z"/>
				<circle cx="90.6" cy="30.3" r="5.9"/>
			</g>
			<rect x="60.4" y="24.9" width="5.6" height="78.7"/>
			<g>
				<path d="M48.4,65.5h4.4l-3.5-20.1c-0.5-3.1-2.9-5.7-6.1-6.5c-2.4-0.6-4.8-0.9-7.4-0.9c-2.5,0-5,0.3-7.4,0.9
					c-3.2,0.8-5.6,3.5-6.1,6.5l-3.5,20.1h4.4l4.6-17l1.8,6.8c-4.2,6.3-6.7,13.8-6.7,21.9h7.6l2.3,26.4h5.9L41,77.2h7.6
					c0-8.1-2.5-15.6-6.7-21.9l1.8-6.8L48.4,65.5z"/>
				<circle cx="35.7" cy="30.3" r="5.9"/>
			</g>
		</g>
	</g>
</g>
</svg>
