<?xml version="1.0" encoding="utf-8"?>
<!-- Generator: Adobe Illustrator 18.1.1, SVG Export Plug-In . SVG Version: 6.00 Build 0)  -->
<!DOCTYPE svg PUBLIC "-//W3C//DTD SVG 1.1//EN" "http://www.w3.org/Graphics/SVG/1.1/DTD/svg11.dtd">
<svg version="1.1" id="レイヤー_1" xmlns="http://www.w3.org/2000/svg" xmlns:xlink="http://www.w3.org/1999/xlink" x="0px"
	 y="0px" viewBox="0 0 128 128" enable-background="new 0 0 128 128" xml:space="preserve">
<g>
	<polygon fill="#040000" points="120,81 8,81 12,73 116,73 	"/>
	<g>
		<g>
			<rect x="48" y="47" fill="#040000" width="32" height="24"/>
			<path fill="#FFFFFF" d="M77,62h-6c-0.6,0-1-0.5-1-1v-6c0-0.5,0.4-1,1-1h6c0.6,0,1,0.5,1,1v6C78,61.5,77.6,62,77,62z"/>
			<path fill="#FFFFFF" d="M57,62h-6c-0.5,0-1-0.5-1-1v-6c0-0.5,0.5-1,1-1h6c0.5,0,1,0.5,1,1v6C58,61.5,57.5,62,57,62z"/>
			<g>
				<path stroke="#FFFFFF" stroke-width="0.5" stroke-miterlimit="10" d="M68,68V54c0-0.5-0.4-1-1-1h-6c-0.5,0-1,0.5-1,1v14
					c0,0.6,0.5,1,1,1h6C67.6,69,68,68.6,68,68z"/>
				<line fill="none" stroke="#FFFFFF" stroke-width="0.5" stroke-miterlimit="10" x1="64" y1="53" x2="64" y2="69"/>
				<g>
					<path fill="#FFFFFF" d="M62.1,62h-0.3c-0.5,0-0.9-0.4-0.9-0.9v-6.3c0-0.5,0.4-0.9,0.9-0.9h0.3c0.5,0,0.9,0.4,0.9,0.9v6.3
						C63,61.6,62.6,62,62.1,62z"/>
					<path fill="#FFFFFF" d="M66.1,62h-0.3c-0.5,0-0.9-0.4-0.9-0.9v-6.3c0-0.5,0.4-0.9,0.9-0.9h0.3c0.5,0,0.9,0.4,0.9,0.9v6.3
						C67,61.6,66.6,62,66.1,62z"/>
				</g>
			</g>
			<polygon fill="#FFFFFF" points="61.7,77 64,73 66.3,77 			"/>
		</g>
		<g>
			<g>
				<rect x="84" y="47" fill="#040000" width="32" height="24"/>
				<path fill="#FFFFFF" d="M113,62h-6c-0.6,0-1-0.5-1-1v-6c0-0.5,0.4-1,1-1h6c0.6,0,1,0.5,1,1v6C114,61.5,113.6,62,113,62z"/>
				<path fill="#FFFFFF" d="M93,62h-6c-0.6,0-1-0.5-1-1v-6c0-0.5,0.4-1,1-1h6c0.6,0,1,0.5,1,1v6C94,61.5,93.6,62,93,62z"/>
				<g>
					<path stroke="#FFFFFF" stroke-width="0.5" stroke-miterlimit="10" d="M104,68V54c0-0.5-0.4-1-1-1h-6c-0.6,0-1,0.5-1,1v14
						c0,0.6,0.4,1,1,1h6C103.6,69,104,68.6,104,68z"/>
					<line fill="none" stroke="#FFFFFF" stroke-width="0.5" stroke-miterlimit="10" x1="100" y1="53" x2="100" y2="69"/>
					<g>
						<path fill="#FFFFFF" d="M98.1,62h-0.3c-0.5,0-0.9-0.4-0.9-0.9v-6.3c0-0.5,0.4-0.9,0.9-0.9h0.3c0.5,0,0.9,0.4,0.9,0.9v6.3
							C99,61.6,98.6,62,98.1,62z"/>
						<path fill="#FFFFFF" d="M102.1,62h-0.3c-0.5,0-0.9-0.4-0.9-0.9v-6.3c0-0.5,0.4-0.9,0.9-0.9h0.3c0.5,0,0.9,0.4,0.9,0.9v6.3
							C103,61.6,102.6,62,102.1,62z"/>
					</g>
				</g>
				<polygon fill="#FFFFFF" points="97.7,77 100,73 102.3,77 				"/>
			</g>
		</g>
		<g>
			<g>
				<rect x="12" y="47" fill="#040000" width="32" height="24"/>
				<path fill="#FFFFFF" d="M41,62h-6c-0.5,0-1-0.5-1-1v-6c0-0.5,0.5-1,1-1h6c0.5,0,1,0.5,1,1v6C42,61.5,41.5,62,41,62z"/>
				<path fill="#FFFFFF" d="M21,62h-6c-0.6,0-1-0.5-1-1v-6c0-0.5,0.4-1,1-1h6c0.5,0,1,0.5,1,1v6C22,61.5,21.5,62,21,62z"/>
				<g>
					<path stroke="#FFFFFF" stroke-width="0.5" stroke-miterlimit="10" d="M32,68V54c0-0.5-0.5-1-1-1h-6c-0.5,0-1,0.5-1,1v14
						c0,0.6,0.5,1,1,1h6C31.5,69,32,68.6,32,68z"/>
					<line fill="none" stroke="#FFFFFF" stroke-width="0.5" stroke-miterlimit="10" x1="28" y1="53" x2="28" y2="69"/>
					<g>
						<path fill="#FFFFFF" d="M26.1,62h-0.3c-0.5,0-0.9-0.4-0.9-0.9v-6.3c0-0.5,0.4-0.9,0.9-0.9h0.3c0.5,0,0.9,0.4,0.9,0.9v6.3
							C27,61.6,26.6,62,26.1,62z"/>
						<path fill="#FFFFFF" d="M30.1,62h-0.3c-0.5,0-0.9-0.4-0.9-0.9v-6.3c0-0.5,0.4-0.9,0.9-0.9h0.3c0.5,0,0.9,0.4,0.9,0.9v6.3
							C31,61.6,30.6,62,30.1,62z"/>
					</g>
				</g>
				<polygon fill="#FFFFFF" points="25.7,77 28,73 30.3,77 				"/>
			</g>
		</g>
	</g>
</g>
</svg>
