<?xml version="1.0" encoding="utf-8"?>
<!-- Generator: Adobe Illustrator 18.1.1, SVG Export Plug-In . SVG Version: 6.00 Build 0)  -->
<!DOCTYPE svg PUBLIC "-//W3C//DTD SVG 1.1//EN" "http://www.w3.org/Graphics/SVG/1.1/DTD/svg11.dtd">
<svg version="1.1" id="レイヤー_1" xmlns="http://www.w3.org/2000/svg" xmlns:xlink="http://www.w3.org/1999/xlink" x="0px"
	 y="0px" viewBox="0 0 128 128" enable-background="new 0 0 128 128" xml:space="preserve">
<g>
	<polygon fill="#040000" points="120,109 8,109 16,93 112,93 	"/>
	<g>
		<g>
			<rect x="16" y="19" fill="#040000" width="96" height="72"/>
			<path fill="#FFFFFF" d="M105,64H83c-0.6,0-1-0.5-1-1V41c0-0.5,0.4-1,1-1h22c0.6,0,1,0.5,1,1v22C106,63.5,105.6,64,105,64z"/>
			<path fill="#FFFFFF" d="M45,64H23c-0.5,0-1-0.5-1-1V41c0-0.5,0.5-1,1-1h22c0.5,0,1,0.5,1,1v22C46,63.5,45.5,64,45,64z"/>
			<g>
				<path stroke="#FFFFFF" stroke-width="0.5" stroke-miterlimit="10" d="M76,84V38c0-0.5-0.4-1-1-1H53c-0.5,0-1,0.5-1,1v46
					c0,0.6,0.5,1,1,1h22C75.6,85,76,84.6,76,84z"/>
				<line fill="none" stroke="#FFFFFF" stroke-width="0.5" stroke-miterlimit="10" x1="64" y1="37" x2="64" y2="85"/>
				<g>
					<path fill="#FFFFFF" d="M60.1,64h-4.3c-0.5,0-0.9-0.4-0.9-0.9V40.9c0-0.5,0.4-0.9,0.9-0.9h4.3c0.5,0,0.9,0.4,0.9,0.9v22.3
						C61,63.6,60.6,64,60.1,64z"/>
					<path fill="#FFFFFF" d="M72.1,64h-4.3c-0.5,0-0.9-0.4-0.9-0.9V40.9c0-0.5,0.4-0.9,0.9-0.9h4.3c0.5,0,0.9,0.4,0.9,0.9v22.3
						C73,63.6,72.6,64,72.1,64z"/>
				</g>
			</g>
		</g>
		<polygon fill="#FFFFFF" points="57.1,105 64,93 70.9,105 		"/>
	</g>
</g>
</svg>
