<?xml version="1.0" encoding="utf-8"?>
<!-- Generator: Adobe Illustrator 18.1.1, SVG Export Plug-In . SVG Version: 6.00 Build 0)  -->
<!DOCTYPE svg PUBLIC "-//W3C//DTD SVG 1.1//EN" "http://www.w3.org/Graphics/SVG/1.1/DTD/svg11.dtd">
<svg version="1.1" id="レイヤー_1" xmlns="http://www.w3.org/2000/svg" xmlns:xlink="http://www.w3.org/1999/xlink" x="0px"
	 y="0px" viewBox="0 0 128 128" enable-background="new 0 0 128 128" xml:space="preserve">
<g>
	<path fill="#1B9AD3" d="M59,22c5.8,0,10.7,1.5,14.8,4.4S80,32.8,80,37v42c0,4.1-2,7.5-5.9,10.4s-8.7,4.4-14.3,4.5l10,9.5
		c0.5,0.5,0.6,1,0.4,1.6s-0.7,0.9-1.4,0.9H19.3c-0.7,0-1.2-0.3-1.4-0.9s-0.1-1.2,0.4-1.6l10-9.5c-5.6-0.2-10.4-1.7-14.3-4.5
		S8,83.1,8,79V37c0-4.2,2.1-7.7,6.2-10.6S23.2,22,29,22H59z M21.5,83.5c2.1,0,3.8-0.7,5.3-2.2S29,78.1,29,76s-0.7-3.8-2.2-5.3
		s-3.2-2.2-5.3-2.2c-2.1,0-3.8,0.7-5.3,2.2S14,73.9,14,76s0.7,3.8,2.2,5.3S19.4,83.5,21.5,83.5z M41,58V34H15.5v24H41z M66.5,83.5
		c2.1,0,3.8-0.7,5.3-2.2S74,78.1,74,76s-0.7-3.8-2.2-5.3s-3.2-2.2-5.3-2.2s-3.8,0.7-5.3,2.2S59,73.9,59,76s0.7,3.8,2.2,5.3
		S64.4,83.5,66.5,83.5z M74,58V34H47v24H74z"/>
	<rect x="84" y="78" fill="#1B9AD3" width="36" height="8"/>
	<rect x="92" y="78" fill="#1B9AD3" width="28" height="28"/>
	<path fill="#1B9AD3" d="M112,55.8v8.1c0,0.5-0.2,1-0.5,1.3s-0.8,0.5-1.3,0.5s-1-0.2-1.3-0.5s-0.5-0.8-0.5-1.3V57H107v17.8
		c0,0.6-0.2,1.1-0.6,1.5s-0.9,0.6-1.5,0.6s-1.1-0.2-1.5-0.6s-0.6-0.9-0.6-1.5v-9.1h-1.3v9.1c0,0.6-0.2,1.1-0.6,1.5S99.8,77,99.2,77
		s-1.1-0.2-1.5-0.6S97,75.4,97,74.8V57h-1.3v6.9c0,0.5-0.2,1-0.5,1.3s-0.8,0.5-1.3,0.5s-1-0.2-1.3-0.5S92,64.4,92,63.9v-8.1
		c0-1,0.4-1.9,1.1-2.7s1.6-1.1,2.7-1.1h12.5c1,0,1.9,0.4,2.7,1.1S112,54.7,112,55.8z M106.4,47c0,1.2-0.4,2.2-1.3,3.1
		s-1.9,1.3-3.1,1.3s-2.2-0.4-3.1-1.3s-1.3-1.9-1.3-3.1s0.4-2.2,1.3-3.1s1.9-1.3,3.1-1.3s2.2,0.4,3.1,1.3S106.4,45.8,106.4,47z"/>
</g>
</svg>
